<?xml version="1.0" encoding="utf-8"?>
<!-- Generator: Adobe Illustrator 25.2.1, SVG Export Plug-In . SVG Version: 6.00 Build 0)  -->
<svg version="1.1" id="Ebene_1" xmlns="http://www.w3.org/2000/svg" xmlns:xlink="http://www.w3.org/1999/xlink" x="0px" y="0px"
	 viewBox="0 0 625 421" style="enable-background:new 0 0 625 421;" xml:space="preserve">
<style type="text/css">
	.st0{fill:#F0AB00;}
</style>
<path class="st0" d="M164,164h-33v-33h33V164z M164,194h-33v33h33V194z M164,257h-33v33h33V257z M227,131h-33v33h33V131z M227,194
	h-33v33h33V194z M290,131h-33v33h32.9L290,131z M290,194h-33v33h32.9L290,194z M227,257h-33v33h33V257z M290,257h-33v33h32.9
	L290,257z M368,131h-32.9v33H368V131z M368,194h-32.9v33H368V194z M368,257h-32.9v33H368V257z M431,131h-32.9v33H431V131z M431,194
	h-32.9v33H431V194z M494,131h-32.9v33H494V131z"/>
</svg>
